<svg xmlns="http://www.w3.org/2000/svg" width="400" height="422.222"><path d="M249.17 1.246c-2.428.6-3.801 1.27-9.406 4.59-5.299 3.139-5.055 3.043-6.008 2.37-6.568-4.636-12.646-4.204-23.922 1.699-47.995 25.125-90.722 54.57-130.65 90.036-7.031 6.246-9.332 9.979-9.906 16.078l-.185 1.961-9.323 6.559c-23.31 16.398-49.063 35.175-52.527 38.298-15.84 14.281.874 42.622 21.137 35.841.898-.3 9.846-4.489 19.884-9.309 10.039-4.819 18.289-8.725 18.335-8.679.045.045-.679 1.334-1.609 2.864-4.878 8.02-5.586 12.988-2.749 19.308.368.82.623 1.526.568 1.569l-7.509 5.666c-13.033 9.832-33.689 25.81-43.983 34.023-7.115 5.677-9.469 9.588-9.724 16.161-.383 9.853 7.796 20.654 16.938 22.369 1.052.198 1.051.187.243 1.953-6.066 13.248 5.198 29.325 20.539 29.316 5.933-.004 8.344-.986 17.526-7.145 7.806-5.235 7.086-4.912 7.652-3.431 1.162 3.045 5.14 7.844 8.482 10.236l1.581 1.131-1.818 1.588c-9.389 8.199-9.512 21.051-.286 29.947l1.602 1.546-.517 1.647c-3.338 10.637 4.195 23.349 15.609 26.339 7.03 1.842 12.391.212 22.478-6.833 16.182-11.303 47.314-32.801 47.498-32.801.117 0 .277.259.356.576.08.317.756 1.506 1.503 2.641l1.358 2.065-12.387 10.705a26482.99 26482.99 0 01-20.682 17.857c-12.3 10.606-14.203 13.449-14.187 21.201.03 15.551 17.343 25.888 31.919 19.057 1.16-.543 9.047-5.293 17.528-10.556a7618.993 7618.993 0 0115.743-9.755c.211-.121.148.257-.179 1.088-6.068 15.394 8.755 33.666 23.98 29.561 4.567-1.231 4.604-1.259 24.28-17.668 16.14-13.459 30.266-25.134 30.809-25.463.204-.124.286.789.29 3.206.03 20.382 20.357 32.077 35.568 20.463 21.472-16.393 46.939-41.503 64.994-64.084 13.503-16.887 30.007-41.5 36.583-54.557 4.613-9.159 2.466-22.362-4.742-29.161-1.605-1.514-5.35-3.766-6.264-3.766-.166 0-.45-.718-.63-1.596-2.624-12.777-17.987-20.838-30.286-15.891-.836.336-1.546.585-1.578.553-.032-.032 6.932-6.165 15.476-13.629 16.15-14.108 17.611-15.537 19.403-18.982 6.687-12.852-2.461-28.704-17.541-30.395-1.803-.202-1.949-.267-2.688-1.197-4.492-5.65-11.064-8.836-18.244-8.843l-3.117-.004-.67-1.687c-.882-2.221-2.178-4.529-3.433-6.117l-1.016-1.284 1.717-1.628c21.566-20.442 35.796-35.607 38.117-40.621 5.988-12.935-6.94-30.695-21.641-29.73-3.606.237-5.342.96-14.523 6.044l-8.288 4.589-1.976-.992c-6.436-3.228-13.283-3.336-19.615-.309-2.459 1.175-21.657 13.949-34.917 23.231-1.229.861-2.235 1.521-2.235 1.467 0-.054 2.5-2.421 5.556-5.261 8.443-7.848 11.226-10.664 12.596-12.742 3.676-5.577 4.5-11.675 2.405-17.807-.766-2.24-.869-2.772-.589-3.027.186-.17 2.067-1.748 4.179-3.505 6.648-5.534 8.308-7.893 10.119-14.379 4.852-17.38-9.742-33.484-25.49-28.128-1.547.526-9.085 4.007-13.658 6.306l-1.434.722.989-1.966c7.352-14.613-8.022-35.302-23.408-31.499" fill-rule="evenodd"/></svg>