<svg xmlns="http://www.w3.org/2000/svg" width="400" height="292.424"><g fill-rule="evenodd"><path d="M131.383 1.084c-.684.25-1.756 1.317-1.756 1.747 0 .213-.132.388-.293.388-.884 0-.286 2.942.805 3.957a66.623 66.623 0 011.39 1.321c2.27 2.327 3.11 2.914 4.17 2.914.523.001.951-.131.951-.292a.3.3 0 01.305-.292c.167 0 .464-.134.658-.298.194-.164.674-.563 1.067-.887.57-.471.736-.925.826-2.263l.112-1.673-1.517-1.317c-1.528-1.327-2.452-2.225-3.145-3.058-.374-.449-2.6-.602-3.573-.247M82.224 5.56c0 .161-.395.292-.878.292s-.878.115-.878.255c0 .141-.532.341-1.183.445-2.636.421-3.791 1.63-3.791 3.969 0 .984.13 1.769.292 1.769.161 0 .293.197.293.439 0 .931 1.11 1.609 2.634 1.609.804 0 1.463-.119 1.463-.265 0-.146.658-.356 1.463-.467.804-.11 1.463-.32 1.463-.466 0-.146.329-.265.731-.265.403 0 .732-.132.732-.293 0-.161.253-.292.564-.292.34 0 .746-.366 1.024-.923.493-.989.627-2.881.204-2.881-.141 0-.336-.399-.433-.886-.329-1.646-3.7-3.505-3.7-2.04m25.677 23.432c-.282.164-.513.489-.513.723 0 .233-.11.424-.246.424s-.495.461-.798 1.024c-.304.563-.653 1.024-.778 1.024-.124 0-.226.198-.226.439 0 .242-.129.439-.287.439-.158 0-.37.329-.471.732-.1.402-.317.731-.48.731-.623 0-.079 3.1.674 3.839 2.426 2.382 5.037 1.917 6.62-1.18.29-.568.757-1.291 1.037-1.605.279-.315.585-.812.678-1.105.093-.294.292-.534.442-.534.15 0 .273-.598.273-1.329 0-2.565-3.776-4.874-5.925-3.622m44.842 2.903c0 .161-.346.292-.77.292-1.466 0-1.784.809-2.015 5.118-.214 4.009-.043 4.831 1.009 4.831.172 0 .313.132.313.293 0 .45 4.65.373 5.069-.085 2.114-2.311 1.455-10.157-.853-10.157-.369 0-.751-.131-.851-.292-.099-.161-.568-.293-1.041-.293-.474 0-.861.132-.861.293M122.97 50.859c-.91.434-.951.526-.951 2.139 0 .927-.132 1.767-.293 1.867-.944.583-.17 5.998.857 5.998.173 0 .314.132.314.293 0 .171.975.292 2.341.292 1.365 0 2.341-.121 2.341-.292 0-.161.197-.293.439-.293.29 0 .438-.29.438-.86 0-.474.132-.942.293-1.042 1.252-.774.107-8.047-1.267-8.047-.269 0-.489-.131-.489-.292 0-.449-2.949-.275-4.023.237m90.198 8.249c-.1.16-.389.292-.642.292-1.728 0-2.471 8.988-.832 10.062.796.521 5.131.69 5.131.199 0-.15.25-.352.555-.449.92-.292 1.246-8.429.371-9.244-.335-.312-.878-.568-1.206-.568-.329 0-.598-.132-.598-.292 0-.161-.584-.293-1.299-.293s-1.381.132-1.48.293M38.672 65.085c-1.665 1.643-1.199 9.824.559 9.824.31 0 .564.131.564.292 0 .467 2.625.339 3.813-.185 1.224-.54 1.448-1.58 1.452-6.74.003-2.772-.146-3.316-.907-3.316-.305 0-.554-.132-.554-.293 0-.659-4.196-.303-4.927.418m34.774-.418c0 .161-.33.293-.732.293-.402 0-.732.116-.732.259 0 .143-.589.348-1.309.456-.721.108-1.387.32-1.481.472-.094.152-.369.276-.613.276-1.797 0-1.537 5.386.318 6.602.798.523 3.963.374 3.963-.186 0-.149.322-.271.715-.271.392 0 .795-.132.895-.293.099-.161.502-.293.895-.293s.714-.122.714-.273c0-.15.359-.315.798-.365 1.913-.222 2.07-4.121.24-5.951-1.015-1.015-3.671-1.54-3.671-.726m101.024 6.631c-.202.082-.366.4-.366.709 0 .308-.132.561-.293.561-.18 0-.292 1.511-.292 3.95 0 2.248.117 3.95.273 3.95.15 0 .356.264.458.585.13.41.443.586 1.044.586.472 0 .858.131.858.292 0 .161.453.293 1.007.293.554 0 1.088-.132 1.188-.293.099-.161.446-.292.769-.292 1.058 0 1.425-.708 1.425-2.742 0-1.048.132-1.987.293-2.086.715-.442.338-4.458-.478-5.1-.749-.589-4.754-.87-5.886-.413m-59.547 6.066c-.281.214-.512.729-.512 1.144 0 .415-.132.837-.292.936-.733.452-.344 6.852.464 7.66 2.051 2.051 6.266.9 6.266-1.711 0-.942.131-1.706.292-1.706.781 0 .33-5.313-.512-6.037-.946-.814-4.758-1.005-5.706-.286M77.015 90.475c-.193.194-.351.494-.351.667 0 .174-.263.506-.585.738-.322.232-.585.642-.585.911s-.198.565-.439.658c-.242.093-.439.407-.439.698 0 .292-.263.72-.585.952-.322.232-.585.59-.585.796 0 .206-.104.374-.23.374-.853 0-.178 2.394 1.002 3.552 1.841 1.806 5.372 1.986 5.372.273 0-.172.123-.313.273-.313.15 0 .367-.297.481-.659.114-.362.434-.856.709-1.097.276-.242.595-.735.71-1.097.114-.363.33-.659.481-.659.15 0 .272-.197.272-.439 0-.241.132-.439.293-.439.161 0 .293-.592.293-1.316 0-.725-.132-1.317-.293-1.317-.161 0-.293-.141-.293-.314 0-.405-.744-1.149-1.149-1.149-.173 0-.315-.099-.316-.22-.008-.772-3.365-1.271-4.036-.6m148.515 11.122c-1.669 1.857-1.6 3.584.212 5.29 1.571 1.479 1.842 1.742 2.781 2.693.399.404.893.735 1.098.735.204 0 .372.131.372.292 0 .161.329.293.731.293.403 0 .732-.132.732-.293 0-.161.315-.292.7-.292 1.358 0 2.616-1.592 2.752-3.482l.122-1.68-1.536-1.296c-.845-.713-1.682-1.466-1.86-1.673-1.352-1.566-1.834-1.819-3.458-1.813-1.444.005-1.623.088-2.646 1.226m-25.676.524c0 .161-.187.293-.416.293-.751 0-2.214 1.014-2.216 1.536-.001.282-.128.512-.281.512-1.075 0-.614 3.297.558 3.989.473.279.808.591.745.693-.063.103.159.375.494.605.335.231.756.59.935.799 1.092 1.27 1.721 1.815 2.096 1.815.234 0 .426.132.426.292 0 .161.329.293.731.293.402 0 .732-.132.732-.293 0-.16.258-.292.573-.292.316 0 .744-.204.951-.453a35.53 35.53 0 011.07-1.191c.787-.839 1.056-3.626.372-3.854-.201-.067-.523-.312-.715-.545-.355-.429-1.326-1.423-2.018-2.063a16.278 16.278 0 01-.731-.732c-.63-.68-1.227-1.111-1.538-1.111a.3.3 0 01-.305-.293c0-.161-.329-.292-.732-.292-.402 0-.731.131-.731.292M5.999 105.439c-.644.348-1.215.731-1.268.852-.054.121-.232.22-.395.22-.373 0-2.384.926-2.58 1.189-.081.107-.43.283-.776.391-.964.301-1.3 4.272-.362 4.272.143 0 .26.234.26.52 0 .603.976 1.528 1.613 1.528.239 0 .435.132.435.293 0 .558 1.773.087 2.341-.622.08-.1.574-.275 1.097-.389.523-.113.951-.327.951-.476 0-.148.198-.269.439-.269.242 0 .439-.115.439-.256 0-.141.403-.337.895-.435 1.433-.287 1.739-.804 1.739-2.946 0-1.087-.128-1.923-.293-1.923-.161 0-.293-.177-.293-.394 0-.581-1.019-1.654-1.57-1.654-.263 0-.478-.132-.478-.292 0-.462-.92-.298-2.194.391m24.742 12.403c-1.175.464-1.888 1.638-2.009 3.309l-.121 1.677 1.969 1.94c1.082 1.067 2.348 2.164 2.812 2.439.464.274.844.601.844.727 0 .127.395.23.877.23.483 0 .878-.132.878-.293 0-.161.218-.292.484-.292s.99-.549 1.609-1.219c2.158-2.338 1.602-4.045-2.321-7.121-.41-.322-.951-.815-1.202-1.097-.453-.509-2.818-.694-3.82-.3m235.068 1.065c-1.266.705-2.453 1.812-2.456 2.29-.001.272-.134.576-.295.676-.555.343-.329 2.04.332 2.495.343.237.771.602.951.812 3.659 4.269 5.871 5.003 8.115 2.691 1.122-1.156 1.753-4.389.856-4.389-.246 0-.657-.379-1.969-1.815-2.749-3.007-3.985-3.623-5.534-2.76m24.462 1.356c0 .161-.33.293-.732.293-.402 0-.731.117-.731.259 0 .143-.59.348-1.31.456-.721.108-1.387.321-1.481.472-.093.152-.426.276-.738.276-.373 0-.568.201-.568.585 0 .322-.132.585-.293.585-.161 0-.292.659-.292 1.464 0 .804.126 1.463.279 1.463.154 0 .364.452.468 1.004.304 1.622 3.872 2.621 4.682 1.311.091-.147.486-.267.879-.267s.715-.132.715-.293c0-.161.329-.292.731-.292.402 0 .732-.132.732-.293 0-.161.299-.293.666-.293 1.474 0 1.967-.736 1.967-2.942 0-1.16-.126-2.032-.293-2.032-.16 0-.292-.197-.292-.439 0-.241-.123-.439-.273-.439-.15 0-.357-.263-.459-.585-.202-.637-3.657-.913-3.657-.293m-155.084 4.097c0 .161-.33.293-.732.293-.402 0-.732.122-.732.272 0 .151-.239.349-.532.442-1.218.387-2.01 3.825-1.063 4.614.458.382 1.449 1.35 2.094 2.046.193.209.522.543.731.742.209.2.706.694 1.105 1.098 2.159 2.186 6.151.105 6.151-3.206 0-1.323-.095-1.61-.585-1.766-.322-.102-.585-.303-.585-.448 0-.405-3.583-3.794-4.011-3.794-.208 0-.378-.132-.378-.293 0-.161-.33-.293-.732-.293-.402 0-.731.132-.731.293m45.354.522c0 .127-.23.253-.512.281-1.264.125-2.414.456-2.414.693 0 .143-.329.26-.731.26-.403 0-.732.131-.732.292 0 .161-.254.293-.564.293-1.382 0-2.247 5.061-.939 5.497a.519.519 0 01.335.453c.001.187.357.506.79.707.942.437 2.719.485 2.719.073 0-.161.329-.293.732-.293.402 0 .731-.116.731-.259 0-.143.593-.348 1.318-.457 4.144-.622 5.316-3.948 2.454-6.965-.737-.777-3.187-1.219-3.187-.575m-116.955 6.427c-.449.604-.894 1.164-.987 1.244-.188.163-.648 1.317-.524 1.317.092 0-.872 1.179-1.504 1.841-1.217 1.272.25 5.008 1.975 5.03.201.003.365.137.365.298 0 .161.64.292 1.421.292 1.406 0 2.969-1.15 2.969-2.186 0-.175.263-.508.585-.74.322-.232.585-.59.585-.796 0-.206.129-.374.287-.374.158 0 .37-.329.471-.732.101-.402.301-.731.444-.731.144 0 .261-.723.261-1.607 0-1.653-.769-3.075-1.662-3.075-.212 0-.386-.146-.386-.324 0-.178-.193-.25-.43-.159-.236.091-.507.039-.602-.115-.482-.78-2.443-.289-3.268.817m87.435 12.035c-1.106.851-1.789 8.591-.838 9.497 2.094 1.993 6.657 1.163 6.657-1.212 0-.495.131-.981.292-1.08 1.127-.697.116-7.169-1.12-7.169-.188 0-.343-.132-.343-.293 0-.55-3.877-.335-4.648.257m71.291 7.847c-.443.07-.805.251-.805.401 0 .15-.329.273-.732.273-.402 0-.731.132-.731.293 0 .161-.307.293-.683.293-.375 0-.781.098-.902.219s-.307.231-.415.245c-1.03.133-1.219.519-1.219 2.493 0 1.15.126 2.017.293 2.017.161 0 .292.127.292.283 0 1.143 2.853 2.888 3.365 2.058.1-.161.503-.293.896-.293.392 0 .714-.131.714-.292 0-.161.329-.293.731-.293.403 0 .732-.114.732-.254s.471-.331 1.046-.424c1.92-.312 2.742-.844 2.941-1.903.202-1.075-.063-3.585-.405-3.841-.119-.089-.362-.425-.54-.747-.33-.598-2.538-.852-4.578-.528m104.535.359c-2.702 1.051-3.299 1.27-3.658 1.342-1.175.239-1.609.563-1.609 1.202 0 .384-.132.698-.293.698-.16 0-.292.329-.292.731 0 .402.132.732.292.732.161 0 .293.447.293.993 0 1.984 3.622 3.995 4.536 2.518.099-.161.436-.293.748-.293.313 0 .568-.131.568-.292 0-.161.33-.293.732-.293.402 0 .731-.114.731-.254s.523-.324 1.163-.41c1.741-.234 2.056-.712 2.056-3.119 0-1.138-.099-2.069-.221-2.069s-.39-.381-.596-.847c-.579-1.309-2.147-1.534-4.45-.639m-56.714 8.072c-.54.621-.638 1.089-.638 3.055 0 1.277-.131 2.403-.292 2.502-1.152.712.089 4.243 1.49 4.243.288 0 .605.132.704.293.1.161.832.292 1.627.292s1.446-.131 1.446-.292c0-.161.234-.293.52-.293 1.249 0 1.528-.939 1.528-5.145 0-3.968-.2-4.804-1.15-4.804-.172 0-.313-.131-.313-.292 0-.713-4.249-.333-4.922.441m-241.311.437c-.102.321-.308.585-.458.585-.15 0-.273.197-.273.439 0 .241-.111.439-.246.439-.136 0-.605.658-1.043 1.463-.438.804-.911 1.463-1.051 1.463-.331 0-.69 1.117-.658 2.048.045 1.336.405 1.978 1.414 2.521.549.296.998.64.998.764 0 .125.832.226 1.847.226 1.839 0 3.128-.839 3.128-2.036 0-.168.116-.305.257-.305.141 0 .421-.395.621-.877.2-.483.477-.878.615-.878s.334-.329.435-.732c.101-.402.301-.731.444-.731.144 0 .261-.594.261-1.32 0-1.462-1.097-3.069-2.096-3.069-.296 0-.537-.132-.537-.293 0-.621-3.456-.344-3.658.293m71.836-.321c0 .146-.658.356-1.463.467-.804.111-1.463.32-1.463.466 0 .146-.329.265-.731.265-.403 0-.732.132-.732.293 0 .161-.273.293-.606.293-1.099 0-1.442.691-1.442 2.905 0 1.184.125 2.069.293 2.069.16 0 .292.177.292.394 0 .933 1.068 1.654 2.449 1.654.745 0 1.355-.131 1.355-.292 0-.161.259-.293.575-.293 1.8 0 5.57-1.768 5.57-2.613 0-.172.132-.313.293-.313.16 0 .292-.461.292-1.024s-.132-1.024-.292-1.024c-.161 0-.293-.33-.293-.732 0-.402-.132-.731-.293-.731-.161 0-.292-.235-.292-.521 0-.834-1.064-1.528-2.345-1.528-.641 0-1.167.12-1.167.265m255.743 2.954c0 .161-.329.293-.732.293-.402 0-.731.131-.731.292 0 .161-.322.293-.714.293-.393 0-.793.126-.888.28-.095.154-.353.21-.573.126-.22-.084-.486-.013-.593.159-.106.172-.392.313-.635.313-1.606 0-1.808 4.487-.255 5.628.161.118.174.217.029.219-.146.003.052.281.438.619.741.647 3.793.617 4.02-.039.054-.155.416-.282.805-.282.388 0 .707-.132.707-.293 0-.161.329-.293.731-.293.403 0 .732-.131.732-.292 0-.161.309-.293.687-.293 1.298 0 1.946-.913 1.946-2.741 0-.906-.131-1.648-.292-1.648-.161 0-.293-.216-.293-.48 0-.996-1.651-2.154-3.07-2.154-.725 0-1.319.132-1.319.293m-47.809 19.259c-.099.16-.838.382-1.642.492-.805.111-1.537.321-1.627.467-.09.145-.485.265-.878.265s-.714.132-.714.292c0 .161-.329.293-.732.293-.402 0-.731.132-.731.293 0 .161-.198.292-.439.292a.44.44 0 00-.439.439c0 .242-.132.439-.293.439-.161 0-.292.658-.292 1.463s.115 1.463.256 1.463c.141 0 .336.403.435.895.205 1.025.814 1.739 1.482 1.739.253 0 .46.131.46.292 0 .161.256.293.568.293.313 0 .649-.132.749-.293.099-.161.502-.292.895-.292s.714-.132.714-.293c0-.161.236-.292.524-.292.815 0 3.456-1.001 4.286-1.625.783-.588 1.177-4.228.457-4.228-.161 0-.292-.196-.292-.435 0-.609-.915-1.613-1.47-1.613-.254 0-.605-.143-.78-.318-.206-.206-.381-.216-.497-.028M184.433 183c-.516.188-1.031.436-1.146.551-.116.115-.451.209-.746.209s-.537.117-.537.259c0 .143-.613.352-1.362.464-.749.113-1.539.381-1.756.598-.467.467-.557 4.531-.1 4.531.161 0 .292.215.292.478 0 1.393 3.906 2.171 5.067 1.01.175-.174.554-.317.844-.317.29 0 .527-.117.527-.26 0-.142.625-.352 1.39-.466 1.59-.237 2.121-.577 2.121-1.358 0-.303.132-.55.293-.55.161 0 .292-.453.292-1.007 0-.553-.131-1.088-.292-1.187-.161-.1-.293-.489-.293-.865 0-1.883-2.294-2.927-4.594-2.09m-104.257 5.442c0 .161-.202.292-.449.292-.567 0-2.185 1.633-2.185 2.205 0 .236-.132.429-.293.429-.16 0-.292.466-.292 1.035 0 1.761 5.026 6.573 6.865 6.573.73 0 1.328-.132 1.328-.293a.3.3 0 01.306-.292c.894 0 1.86-1.58 1.98-3.24l.122-1.688-2.693-2.657c-2.589-2.554-4.689-3.614-4.689-2.364m314.484 3.708c-.443.074-.805.258-.805.408 0 .15-.329.273-.731.273-.403 0-.732.124-.732.275 0 .151-.592.363-1.317.472-.724.108-1.316.314-1.316.457 0 .142-.25.259-.554.259-.875 0-1.664 3.777-.889 4.256.15.092.272.364.272.603 0 1.467 3.404 2.681 4.485 1.599.173-.172.617-.313.987-.313s.673-.132.673-.293c0-.161.329-.292.732-.292.402 0 .731-.132.731-.293 0-.161.335-.293.745-.293 1.153 0 2.181-1.217 2.181-2.583 0-3.54-1.471-5.034-4.462-4.535m-267.444 1.825c-.762.279-1.475.596-1.585.706-.109.109-.44.198-.735.198s-.536.123-.536.273c0 .151-.362.315-.805.366-.576.067-.831.28-.898.751-.051.362-.216.659-.366.659-.149 0-.272.46-.272 1.024 0 .563.114 1.024.254 1.024s.329.458.42 1.018c.282 1.74 3.715 3.773 3.715 2.201 0-.161.322-.293.714-.293.393 0 .787-.117.875-.259.088-.142.751-.347 1.473-.456.723-.108 1.39-.321 1.484-.472.094-.152.436-.276.759-.276 1.082 0 1.425-.701 1.425-2.905 0-1.185-.125-2.069-.292-2.069-.161 0-.293-.196-.293-.436 0-1.578-2.536-2.079-5.337-1.054m121.504 3.228c0 .152-.284.222-.631.155-1.495-.288-1.787.596-1.833 5.568-.046 4.871.124 5.121 3.488 5.121 3.353 0 3.513-.231 3.779-5.467l.209-4.117-.765-.602c-.421-.331-1.022-.552-1.336-.492-.313.061-.57-.014-.57-.166 0-.151-.527-.275-1.171-.275-.643 0-1.17.124-1.17.275m31.047 9.587c-1.804.235-2.183 1.375-2.143 6.441.034 4.103.35 4.477 3.776 4.465 3.131-.01 3.261-.19 3.496-4.85.293-5.815-.429-6.668-5.129-6.056m62.003.379c0 .161-.209.293-.465.293-.517 0-1.558 1.113-1.573 1.682-.006.201-.142.366-.303.366s-.292.616-.292 1.369c0 2.701 5.758 7.547 7.675 6.458 3.47-1.97 3.789-4.26.986-7.077-1.03-1.035-1.951-1.803-2.048-1.706-.097.097-.176.042-.176-.121 0-.841-1.125-1.557-2.448-1.557-.746 0-1.356.132-1.356.293m22.239 5.56c0 .161-.329.292-.732.292-.402 0-.731.132-.731.293 0 .161-.322.292-.715.292-.392 0-.792.126-.887.28-.095.154-.353.211-.573.127-.22-.085-.487-.013-.593.159-.106.172-.392.312-.635.312-.912 0-1.279.793-1.279 2.759 0 1.087.127 1.923.293 1.923.16 0 .292.192.292.426 0 1.512 4.448 2.704 4.926 1.32.053-.156.416-.283.804-.283.389 0 .708-.132.708-.292 0-.161.329-.293.731-.293.402 0 .732-.132.732-.293 0-.161.309-.292.686-.292 1.299 0 1.947-.913 1.947-2.741 0-.907-.132-1.649-.292-1.649-.161 0-.293-.263-.293-.585 0-.322-.132-.585-.293-.585-.161 0-.292-.15-.292-.333 0-.634-1.029-1.111-2.414-1.121-.765-.005-1.39.123-1.39.284m-152.89 9.071c-.099.16-.502.292-.895.292s-.714.132-.714.293c0 .161-.329.292-.732.292-.402 0-.731.124-.731.275 0 .151-.593.364-1.317.472-1.025.154-1.317.32-1.317.75 0 .303-.131.552-.292.552-.161 0-.293.658-.293 1.463 0 .804.132 1.463.293 1.463.161 0 .292.323.292.718 0 1.751 4.383 3.186 4.926 1.613.054-.156.416-.283.805-.283.389 0 .707-.117.707-.259 0-.143.563-.344 1.252-.447 3.187-.478 3.964-3.897 1.548-6.807-.602-.724-3.151-1.004-3.532-.387m82.37 10.741c-1.169.428-2.926 2.884-2.926 4.089 0 1.494 5.233 6.238 6.882 6.238.721 0 1.311-.132 1.311-.293 0-.161.198-.293.439-.293.242 0 .439-.122.439-.273 0-.15.255-.353.566-.452.736-.234 1.615-2.512 1.36-3.525-.197-.788-1.197-1.894-2.638-2.919-.452-.321-.971-.756-1.152-.965-1.593-1.834-2.616-2.218-4.281-1.607m-40.237 9.161c-.101.163-.301.225-.444.136-.249-.154-.496-.067-1.963.691-.36.186-.853.339-1.097.339s-.443.122-.443.272c0 .15-.296.314-.658.366-.423.06-.692.328-.752.751-.052.363-.216.659-.366.659s-.272.329-.272.731c0 .403.131.732.292.732.161 0 .293.408.293.906 0 1.156.849 2.605 1.526 2.605.287 0 .522.132.522.293 0 .161.322.292.715.292.392 0 .795-.131.895-.292.099-.161.436-.293.748-.293.313 0 .568-.119.568-.265 0-.146.659-.356 1.463-.466.805-.111 1.464-.321 1.464-.467 0-.145.329-.265.731-.265.402 0 .732-.131.732-.292 0-.161.246-.293.546-.293 1.284 0 1.045-4.29-.311-5.616-.882-.861-3.758-1.221-4.189-.524m74.546 8.586c-.362.18-.658.463-.658.631 0 .168-.264.495-.586.727-.321.232-.585.66-.585.952 0 .291-.197.605-.439.698-.241.092-.439.363-.439.602s-.286.666-.636.949c-1.57 1.271-.729 5.577 1.089 5.577.234 0 .425.132.425.293 0 .161.734.293 1.631.293 1.58 0 2.466-.413 2.466-1.15 0-.172.123-.314.273-.314.15 0 .366-.296.481-.658.114-.362.452-.871.751-1.132.299-.26.543-.606.543-.768 0-.163.198-.46.439-.66.241-.201.439-.612.439-.914 0-.302.132-.549.293-.549.41 0 .364-1.342-.074-2.126-.653-1.17-1.177-1.678-1.727-1.678-.297 0-.54-.132-.54-.293 0-.161-.33-.293-.732-.293-.402 0-.731-.131-.731-.292 0-.37-.827-.319-1.683.105m-50.695 33.253c0 .161-.329.292-.731.292-.403 0-.732.117-.732.259 0 .143-.724.349-1.609.46-.885.111-1.61.323-1.61.473 0 .149-.329.271-.731.271-.403 0-.732.132-.732.293 0 .161-.141.292-.313.292-.975 0-1.717 3.419-.857 3.951.161.099.292.416.292.704 0 1.589 2.799 2.515 4.743 1.569.369-.18 1.461-.559 2.426-.843.966-.284 1.822-.59 1.902-.68.081-.091.41-.31.732-.488.655-.362 1.068-4.213.452-4.213-.168 0-.306-.197-.306-.438 0-.242-.263-.703-.585-1.025-.322-.321-.783-.585-1.024-.585-.242 0-.439-.131-.439-.292 0-.161-.198-.293-.439-.293s-.439.132-.439.293" fill="#344c4c"/><path d="M246.154 201.024c0 .563.06.794.134.512a2.39 2.39 0 000-1.024c-.074-.282-.134-.051-.134.512m31.332 13.314c.002.966.057 1.325.122.799.065-.526.064-1.316-.003-1.755-.067-.44-.12-.01-.119.956" fill="#384c4c"/><path d="M246.154 201.024c0 .563.06.794.134.512a2.39 2.39 0 000-1.024c-.074-.282-.134-.051-.134.512m31.332 13.314c.002.966.057 1.325.122.799.065-.526.064-1.316-.003-1.755-.067-.44-.12-.01-.119.956" fill="#384c4c"/><path d="M246.154 201.024c0 .563.06.794.134.512a2.39 2.39 0 000-1.024c-.074-.282-.134-.051-.134.512m31.332 13.314c.002.966.057 1.325.122.799.065-.526.064-1.316-.003-1.755-.067-.44-.12-.01-.119.956" fill="#384c4c"/><path d="M246.154 201.024c0 .563.06.794.134.512a2.39 2.39 0 000-1.024c-.074-.282-.134-.051-.134.512m31.332 13.314c.002.966.057 1.325.122.799.065-.526.064-1.316-.003-1.755-.067-.44-.12-.01-.119.956" fill="#384c4c"/></g></svg>